HIERARCHY
ROOT joint_Root
{
	OFFSET 0.0 0.0 0.0
	CHANNELS 6 Xposition Yposition Zposition Zrotation Xrotation Yrotation 
	JOINT Hips
	{
		OFFSET 4.5925 91.4895 -427.239
		CHANNELS 6 Xposition Yposition Zposition Zrotation Xrotation Yrotation 
		JOINT Spine
		{
			OFFSET 15.7357 0.0 0.0
			CHANNELS 6 Xposition Yposition Zposition Zrotation Xrotation Yrotation 
			JOINT Chest
			{
				OFFSET 8.98455 -0.406207 0.0
				CHANNELS 6 Xposition Yposition Zposition Zrotation Xrotation Yrotation 
				JOINT Neck
				{
					OFFSET 16.3773 0.0 0.0
					CHANNELS 6 Xposition Yposition Zposition Zrotation Xrotation Yrotation 
					JOINT Head
					{
						OFFSET 6.45672 0.0 0.0
						CHANNELS 6 Xposition Yposition Zposition Zrotation Xrotation Yrotation 
						End Site
						{
							OFFSET 0.0 0.0 0.0
						}
					}
				}
				JOINT Shoulder_L
				{
					OFFSET 12.9942 -0.242716 4.98039
					CHANNELS 6 Xposition Yposition Zposition Zrotation Xrotation Yrotation 
					JOINT UpperArm_L
					{
						OFFSET 5.34809 0.0 0.0
						CHANNELS 6 Xposition Yposition Zposition Zrotation Xrotation Yrotation 
						JOINT LowerArm_L
						{
							OFFSET 24.3286 1.87007e-05 0.0
							CHANNELS 6 Xposition Yposition Zposition Zrotation Xrotation Yrotation 
							JOINT Hand_L
							{
								OFFSET 22.2916 0.0 0.0
								CHANNELS 6 Xposition Yposition Zposition Zrotation Xrotation Yrotation 
								End Site
								{
									OFFSET 0.0 0.0 0.0
								}
							}
						}
					}
				}
				JOINT Shoulder_R
				{
					OFFSET 12.9945 -0.242716 -4.98039
					CHANNELS 6 Xposition Yposition Zposition Zrotation Xrotation Yrotation 
					JOINT UpperArm_R
					{
						OFFSET -5.34813 0.0 0.0
						CHANNELS 6 Xposition Yposition Zposition Zrotation Xrotation Yrotation 
						JOINT LowerArm_R
						{
							OFFSET -24.3289 0.000322201 0.0
							CHANNELS 6 Xposition Yposition Zposition Zrotation Xrotation Yrotation 
							JOINT Hand_R
							{
								OFFSET -22.2915 -0.000108084 0.0
								CHANNELS 6 Xposition Yposition Zposition Zrotation Xrotation Yrotation 
								End Site
								{
									OFFSET 0.0 0.0 0.0
								}
							}
						}
					}
				}
			}
		}
		JOINT UpperLeg_L
		{
			OFFSET -2.19248 -6.46944 0.0
			CHANNELS 6 Xposition Yposition Zposition Zrotation Xrotation Yrotation 
			JOINT LowerLeg_L
			{
				OFFSET 39.0811 0.0 -1.23785e-05
				CHANNELS 6 Xposition Yposition Zposition Zrotation Xrotation Yrotation 
				JOINT Foot_L
				{
					OFFSET 40.9854 0.0 -1.26872e-05
					CHANNELS 6 Xposition Yposition Zposition Zrotation Xrotation Yrotation 
					JOINT Toes_L
					{
						OFFSET 11.7543 0.0 0.0
						CHANNELS 6 Xposition Yposition Zposition Zrotation Xrotation Yrotation 
						End Site
						{
							OFFSET 0.0 0.0 0.0
						}
					}
				}
			}
		}
		JOINT UpperLeg_R
		{
			OFFSET -2.19251 6.46944 0.0
			CHANNELS 6 Xposition Yposition Zposition Zrotation Xrotation Yrotation 
			JOINT LowerLeg_R
			{
				OFFSET -39.0811 -0.00228153 -0.0401928
				CHANNELS 6 Xposition Yposition Zposition Zrotation Xrotation Yrotation 
				JOINT Foot_R
				{
					OFFSET -40.9854 0.0 0.0
					CHANNELS 6 Xposition Yposition Zposition Zrotation Xrotation Yrotation 
					JOINT Toes_R
					{
						OFFSET -11.7543 0.0 0.0
						CHANNELS 6 Xposition Yposition Zposition Zrotation Xrotation Yrotation 
						End Site
						{
							OFFSET 0.0 0.0 0.0
						}
					}
				}
			}
		}
	}
}
MOTION
Frames:	4
Frame Time:	0.0333333
0.000000 0.000000 0.000000 0.000000 0.000000 -0.000000 -3.431860 83.855500 -2.562780 86.228600 1.397370 10.212500 15.735700 0.000005 -0.000001 83.520500 82.175000 -83.532200 8.984550 -0.406207 -0.000000 7.786670 -1.758840 0.096365 16.377300 -0.000001 -0.000001 -2.178590 -1.209530 0.767661 6.456720 -0.000001 -0.000000 -3.339510 0.543011 1.227650 12.994200 -0.242716 4.980390 -90.984900 3.344740 -73.581900 5.348090 -0.000007 -0.000001 -67.334500 25.552900 -9.245480 24.328600 0.000019 0.000005 13.394000 19.181300 -35.931600 22.291600 -0.000001 0.000005 14.063800 5.237040 1.769060 12.994500 -0.242716 -4.980390 88.456400 8.700440 -79.898900 -5.348130 -0.000001 -0.000004 -62.352800 20.241300 -7.401240 -24.328900 0.000322 -0.000009 -1.803220 -2.790170 -32.868700 -22.291500 -0.000108 -0.000004 11.981100 5.380320 -2.304930 -2.192480 -6.469440 -0.000000 -168.933000 -9.864200 -15.877200 39.081100 -0.000007 -0.000012 -0.266918 0.164606 58.339300 40.985400 -0.000006 -0.000013 1.815700 11.103800 -82.376900 11.754300 -0.000000 0.000003 -0.000156 -0.001503 -16.634600 -2.192510 6.469440 -0.000001 -177.857000 13.900200 166.657000 -39.081100 -0.002282 -0.040193 0.071987 -0.045639 56.428800 -40.985400 0.000008 0.000006 8.965470 3.442690 -83.638200 -11.754300 -0.000006 -0.000006 -0.547634 -0.673645 -16.425900
0.000000 0.000000 0.000000 0.000000 0.000000 -0.000000 -3.881800 86.268300 -1.873410 85.600700 3.446070 10.094100 15.735700 0.000005 -0.000001 83.144600 82.862700 -84.025200 8.984550 -0.406207 -0.000000 6.396280 -1.688310 -1.664860 16.377300 -0.000001 -0.000001 -0.933799 -1.134460 1.079790 6.456720 -0.000001 -0.000000 -2.573820 -0.006228 3.567050 12.994200 -0.242716 4.980390 -90.972500 3.097540 -72.558800 5.348090 -0.000007 -0.000001 -67.872900 23.603500 -8.048110 24.328600 0.000019 0.000005 10.616700 16.554500 -33.338800 22.291600 -0.000001 0.000005 14.074100 5.172610 3.395840 12.994500 -0.242716 -4.980390 88.555700 7.552730 -79.140300 -5.348130 -0.000001 -0.000004 -58.276500 17.118800 -8.923180 -24.328900 0.000322 -0.000009 -1.040380 -1.321980 -38.313800 -22.291500 -0.000108 -0.000004 7.186000 5.426430 -3.817940 -2.192480 -6.469440 -0.000000 -168.261000 -8.730860 -12.336800 39.081100 -0.000007 -0.000012 -0.203904 0.166015 50.848900 40.985400 -0.000006 -0.000013 1.259230 12.193000 -78.860800 11.754300 -0.000000 0.000003 -0.000108 -0.001099 -16.619600 -2.192510 6.469440 -0.000001 -177.551000 16.446200 171.090000 -39.081100 -0.002282 -0.040193 0.059943 -0.050396 48.363500 -40.985400 0.000008 0.000006 8.955340 4.572200 -79.843700 -11.754300 -0.000006 -0.000006 -0.643976 -0.792635 -16.846000
0.000000 0.000000 0.000000 0.000000 0.000000 -0.000000 -3.987970 88.911600 -1.544060 85.795500 4.473570 8.251550 15.735700 0.000005 -0.000001 84.013900 84.184200 -85.997400 8.984550 -0.406207 -0.000000 3.786070 -1.142570 -3.924900 16.377300 -0.000001 -0.000001 0.792264 -1.032520 1.290290 6.456720 -0.000001 -0.000000 -1.737080 -0.597302 5.856310 12.994200 -0.242716 4.980390 -90.735800 2.158440 -71.166400 5.348090 -0.000007 -0.000001 -68.590900 21.501900 -5.577390 24.328600 0.000019 0.000005 10.090500 15.621500 -33.458500 22.291600 -0.000001 0.000005 11.662400 5.192320 2.907160 12.994500 -0.242716 -4.980390 88.790500 5.752420 -78.103600 -5.348130 -0.000001 -0.000004 -49.045900 11.975000 -13.387600 -24.328900 0.000322 -0.000009 0.955746 0.866042 -47.868200 -22.291500 -0.000108 -0.000004 9.317820 5.475560 -5.561030 -2.192480 -6.469440 -0.000000 -168.999000 -8.287940 -9.352880 39.081100 -0.000007 -0.000012 -0.137964 0.158097 41.110300 40.985400 -0.000006 -0.000013 0.323946 12.293300 -74.007100 11.754300 -0.000000 0.000003 -0.000063 -0.000690 -16.604300 -2.192510 6.469440 -0.000001 -177.850000 18.791800 174.185000 -39.081100 -0.002282 -0.040193 0.041088 -0.047037 38.790400 -40.985400 0.000008 0.000006 8.745000 7.177920 -74.482100 -11.754300 -0.000006 -0.000006 -0.694711 -0.848760 -17.759900
0.000000 0.000000 0.000000 0.000000 0.000000 -0.000000 -3.708190 90.872700 -1.501670 86.068500 4.711160 6.253620 15.735700 0.000005 -0.000001 85.600300 85.339500 -88.385500 8.984550 -0.406207 -0.000000 1.519930 -0.563015 -5.557910 16.377300 -0.000001 -0.000001 2.200780 -0.881172 1.101550 6.456720 -0.000001 -0.000000 -1.265130 -0.951639 6.885980 12.994200 -0.242716 4.980390 -90.546400 1.479680 -69.728600 5.348090 -0.000007 -0.000001 -68.324400 19.976600 -2.546890 24.328600 0.000019 0.000005 11.505200 16.020800 -36.409800 22.291600 -0.000001 0.000005 8.441760 5.229380 1.964330 12.994500 -0.242716 -4.980390 89.273700 3.346180 -77.746600 -5.348130 -0.000001 -0.000004 -37.906800 -0.631409 -20.748500 -24.328900 0.000322 -0.000009 -2.003070 -1.407930 -54.834700 -22.291500 -0.000108 -0.000004 14.210800 5.504260 -6.694340 -2.192480 -6.469440 -0.000000 -170.076000 -7.887630 -6.939810 39.081100 -0.000007 -0.000012 -0.101285 0.160418 32.267900 40.985400 -0.000006 -0.000013 -0.476042 11.508100 -69.545000 11.754300 -0.000000 0.000003 -0.000055 -0.000611 -16.601300 -2.192510 6.469440 -0.000001 -178.645000 22.397300 176.127000 -39.081100 -0.002282 -0.040193 0.028840 -0.042579 30.956100 -40.985400 0.000008 0.000006 8.171130 11.861600 -69.351300 -11.754300 -0.000006 -0.000006 -0.403919 -0.505328 -18.623100
